<?xml version="1.0" standalone="no"?>
<!DOCTYPE svg PUBLIC "-//W3C//DTD SVG 20010904//EN"
 "http://www.w3.org/TR/2001/REC-SVG-20010904/DTD/svg10.dtd">
<svg version="1.0" xmlns="http://www.w3.org/2000/svg"
 width="1024.000000pt" height="1024.000000pt" viewBox="0 0 1024.000000 1024.000000"
 preserveAspectRatio="xMidYMid meet">

<g transform="translate(0.000000,1024.000000) scale(0.100000,-0.100000)"
fill="#000000" stroke="none">
<path d="M4288 9703 c6 -2 18 -2 25 0 6 3 1 5 -13 5 -14 0 -19 -2 -12 -5z"/>
<path d="M5998 9693 c7 -3 16 -2 19 1 4 3 -2 6 -13 5 -11 0 -14 -3 -6 -6z"/>
<path d="M6098 9673 c7 -3 16 -2 19 1 4 3 -2 6 -13 5 -11 0 -14 -3 -6 -6z"/>
<path d="M6116 9657 c-16 -12 -16 -14 -2 -26 14 -12 16 -11 10 3 -4 12 -2 15
9 10 8 -3 18 -1 22 5 4 7 0 8 -11 4 -12 -4 -15 -3 -10 5 9 15 4 15 -18 -1z"/>
<path d="M4070 9636 c0 -2 7 -7 16 -10 8 -3 12 -2 9 4 -6 10 -25 14 -25 6z"/>
<path d="M6424 9578 c-9 -14 26 -40 45 -33 7 3 22 -2 33 -12 18 -16 18 -16 12
0 -3 9 -10 17 -15 17 -4 0 -6 8 -3 18 4 10 2 13 -3 7 -7 -9 -63 -15 -63 -7 0
1 10 7 23 12 l22 9 -22 0 c-12 1 -25 -4 -29 -11z"/>
<path d="M3718 9563 c7 -3 16 -2 19 1 4 3 -2 6 -13 5 -11 0 -14 -3 -6 -6z"/>
<path d="M6417 9539 c7 -7 15 -10 18 -7 3 3 -2 9 -12 12 -14 6 -15 5 -6 -5z"/>
<path d="M3522 9501 c-11 -7 -11 -9 1 -14 9 -3 21 1 27 9 10 11 10 14 -1 14
-8 0 -20 -4 -27 -9z"/>
<path d="M3490 9484 c0 -6 7 -17 15 -24 8 -7 15 -8 15 -3 0 6 12 9 26 7 15 -1
33 3 40 10 11 11 9 14 -12 14 -13 0 -24 -4 -24 -9 0 -12 -43 -7 -52 6 -5 6 -8
6 -8 -1z"/>
<path d="M3270 9400 c-12 -7 -10 -9 8 -7 12 0 22 5 22 9 0 11 -12 10 -30 -2z"/>
<path d="M7275 9240 c-3 -6 1 -7 9 -4 18 7 21 14 7 14 -6 0 -13 -4 -16 -10z"/>
<path d="M7380 9190 c8 -5 10 -10 5 -10 -22 0 -10 -39 15 -50 14 -7 22 -9 18
-5 -4 4 -3 16 2 26 8 14 5 21 -12 33 -12 9 -27 16 -33 16 -5 0 -3 -5 5 -10z
m29 -36 c-6 -8 -15 -12 -18 -8 -3 4 0 9 7 11 6 3 9 10 6 15 -4 7 -2 8 5 4 9
-6 9 -11 0 -22z"/>
<path d="M7680 9017 c0 -3 12 -12 26 -22 15 -9 23 -12 20 -6 -7 11 -46 35 -46
28z"/>
<path d="M7850 8875 c-10 -12 -9 -15 5 -15 14 0 15 -3 6 -14 -10 -12 -8 -14
11 -12 13 1 30 6 38 11 13 8 13 6 1 -8 -7 -9 -9 -17 -3 -17 23 0 18 29 -8 49
-35 25 -34 25 -50 6z"/>
<path d="M7870 8820 c0 -5 5 -10 10 -10 6 0 10 5 10 10 0 6 -4 10 -10 10 -5 0
-10 -4 -10 -10z"/>
<path d="M1974 8568 l-19 -23 23 19 c21 18 27 26 19 26 -2 0 -12 -10 -23 -22z"/>
<path d="M1814 8418 l-19 -23 23 19 c21 18 27 26 19 26 -2 0 -12 -10 -23 -22z"/>
<path d="M1659 8253 l-24 -28 28 24 c25 23 32 31 24 31 -2 0 -14 -12 -28 -27z"/>
<path d="M8825 7906 c0 -30 4 -59 9 -63 5 -4 6 2 3 14 -3 13 -1 26 4 29 9 5
13 -9 10 -35 -2 -11 0 -11 12 0 8 8 11 16 6 17 -5 2 -9 8 -9 13 0 6 5 7 11 3
8 -4 7 0 -1 15 -6 12 -16 18 -22 15 -6 -4 -8 -3 -5 3 4 6 1 18 -6 27 -10 14
-12 7 -12 -38z"/>
<path d="M1324 7809 c-3 -6 -2 -15 3 -20 5 -5 9 -1 9 11 0 23 -2 24 -12 9z"/>
<path d="M8979 7731 c6 -10 7 -21 4 -25 -3 -3 -1 -6 6 -6 7 0 9 -5 6 -10 -4
-6 -1 -9 7 -8 7 2 12 -5 11 -16 -1 -12 2 -15 9 -8 6 6 1 24 -17 51 -28 42 -43
56 -26 22z"/>
<path d="M1239 7713 c-13 -16 -12 -17 4 -4 16 13 21 21 13 21 -2 0 -10 -8 -17
-17z"/>
<path d="M9320 7141 c0 -6 4 -13 10 -16 6 -3 7 1 4 9 -7 18 -14 21 -14 7z"/>
<path d="M9473 6782 c0 -12 5 -22 9 -22 11 0 10 12 -2 30 -7 12 -9 10 -7 -8z"/>
<path d="M746 6754 c-4 -9 -4 -19 -1 -22 3 -3 5 0 5 7 0 7 4 9 10 6 6 -3 7 1
4 9 -8 20 -10 20 -18 0z"/>
<path d="M641 6434 c0 -11 3 -14 6 -6 3 7 2 16 -1 19 -3 4 -6 -2 -5 -13z"/>
<path d="M621 6374 c0 -11 3 -14 6 -6 3 7 2 16 -1 19 -3 4 -6 -2 -5 -13z"/>
<path d="M601 6294 c0 -11 3 -14 6 -6 3 7 2 16 -1 19 -3 4 -6 -2 -5 -13z"/>
<path d="M9632 6295 c0 -11 3 -29 8 -40 11 -25 11 1 0 35 -6 20 -8 21 -8 5z"/>
<path d="M6781 6044 c0 -11 3 -14 6 -6 3 7 2 16 -1 19 -3 4 -6 -2 -5 -13z"/>
<path d="M531 5974 c0 -11 3 -14 6 -6 3 7 2 16 -1 19 -3 4 -6 -2 -5 -13z"/>
<path d="M6752 5960 c0 -19 2 -27 5 -17 2 9 2 25 0 35 -3 9 -5 1 -5 -18z"/>
<path d="M9701 5974 c0 -11 3 -14 6 -6 3 7 2 16 -1 19 -3 4 -6 -2 -5 -13z"/>
<path d="M3216 5968 c3 -4 -55 -9 -128 -11 l-133 -3 145 -2 c80 -1 151 2 159
7 9 6 4 10 -17 13 -17 2 -29 1 -26 -4z"/>
<path d="M6770 5941 c0 -11 -8 -22 -17 -24 -14 -4 -12 -5 5 -6 17 -1 22 4 22
24 0 14 -2 25 -5 25 -3 0 -5 -9 -5 -19z"/>
<path d="M522 5925 c0 -16 2 -22 5 -12 2 9 2 23 0 30 -3 6 -5 -1 -5 -18z"/>
<path d="M2903 5943 c9 -2 23 -2 30 0 6 3 -1 5 -18 5 -16 0 -22 -2 -12 -5z"/>
<path d="M3278 5943 c7 -3 16 -2 19 1 4 3 -2 6 -13 5 -11 0 -14 -3 -6 -6z"/>
<path d="M4897 5913 c18 -2 50 -2 70 0 21 2 7 4 -32 4 -38 0 -55 -2 -38 -4z"/>
<path d="M4352 5145 c-1 -455 -6 -764 -11 -756 -6 10 -9 3 -8 -21 1 -25 5 -34
14 -31 9 4 13 -4 13 -23 0 -15 1 -25 3 -23 1 2 0 369 -3 814 l-5 810 -3 -770z"/>
<path d="M6373 5715 c0 -93 3 -145 7 -125 4 19 8 29 9 21 0 -8 13 0 31 19 24
25 28 36 19 46 -6 8 -15 11 -20 8 -5 -3 -9 22 -9 55 0 46 -3 61 -14 61 -10 0
-16 13 -19 38 -2 20 -4 -35 -4 -123z"/>
<path d="M507 5839 c-12 -44 -19 -166 -8 -141 6 12 8 30 5 40 -5 16 -5 16 6
-1 6 -9 9 -21 6 -25 -3 -5 1 -9 9 -9 10 0 11 5 4 19 -5 10 -7 18 -3 18 3 0 1
7 -6 15 -11 13 -10 14 4 9 17 -7 23 11 6 21 -5 3 -7 11 -4 18 3 8 1 24 -4 37
l-9 24 -6 -25z"/>
<path d="M530 5796 c0 -2 7 -7 16 -10 8 -3 12 -2 9 4 -6 10 -25 14 -25 6z"/>
<path d="M6492 5775 c0 -16 2 -22 5 -12 2 9 2 23 0 30 -3 6 -5 -1 -5 -18z"/>
<path d="M546 5753 c-6 -14 -5 -15 5 -6 7 7 10 15 7 18 -3 3 -9 -2 -12 -12z"/>
<path d="M6493 5665 c0 -44 2 -61 4 -37 2 23 2 59 0 80 -2 20 -4 1 -4 -43z"/>
<path d="M9741 5724 c0 -11 3 -14 6 -6 3 7 2 16 -1 19 -3 4 -6 -2 -5 -13z"/>
<path d="M6457 5683 c-3 -5 -1 -17 4 -28 7 -17 8 -17 8 8 1 27 -4 34 -12 20z"/>
<path d="M482 5645 c0 -16 2 -22 5 -12 2 9 2 23 0 30 -3 6 -5 -1 -5 -18z"/>
<path d="M471 5554 c0 -11 3 -14 6 -6 3 7 2 16 -1 19 -3 4 -6 -2 -5 -13z"/>
<path d="M4022 5479 c25 -41 52 -45 55 -8 l1 24 -5 -25 -5 -24 -14 24 c-7 14
-13 19 -14 11 0 -8 -8 -4 -21 10 -17 21 -17 19 3 -12z"/>
<path d="M463 5410 c0 -36 2 -50 4 -32 2 17 2 47 0 65 -2 17 -4 3 -4 -33z"/>
<path d="M4256 5423 c-9 -21 3 -101 16 -109 30 -19 42 83 13 112 -18 18 -21
18 -29 -3z"/>
<path d="M4057 5413 c3 -7 9 -10 14 -7 14 8 11 21 -5 21 -8 0 -12 -6 -9 -14z"/>
<path d="M6693 5423 c9 -2 25 -2 35 0 9 3 1 5 -18 5 -19 0 -27 -2 -17 -5z"/>
<path d="M4333 5370 c0 -25 2 -35 4 -22 2 12 2 32 0 45 -2 12 -4 2 -4 -23z"/>
<path d="M2907 5341 c-10 -14 -10 -14 5 -3 11 9 17 10 20 2 2 -7 14 -9 31 -5
34 9 29 16 -13 19 -18 1 -36 -4 -43 -13z"/>
<path d="M6774 5260 c0 -58 1 -81 3 -52 2 28 2 76 0 105 -2 28 -3 5 -3 -53z"/>
<path d="M6372 5330 c0 -14 2 -19 5 -12 2 6 2 18 0 25 -3 6 -5 1 -5 -13z"/>
<path d="M454 5135 c0 -115 2 -161 3 -102 2 59 2 154 0 210 -1 56 -3 8 -3
-108z"/>
<path d="M2839 5313 c-13 -16 -12 -17 4 -4 16 13 21 21 13 21 -2 0 -10 -8 -17
-17z"/>
<path d="M3290 5316 c0 -2 7 -7 16 -10 8 -3 12 -2 9 4 -6 10 -25 14 -25 6z"/>
<path d="M9784 5130 c0 -85 2 -120 3 -77 2 42 2 112 0 155 -1 42 -3 7 -3 -78z"/>
<path d="M3400 5249 c9 -15 8 -24 -2 -37 -9 -11 -10 -14 0 -8 18 11 15 -5 -5
-19 -15 -11 -15 -13 5 -24 18 -9 23 -8 32 10 11 19 10 20 -9 10 -30 -17 -36
-13 -11 7 22 18 22 19 6 50 -9 18 -19 32 -22 32 -2 0 0 -9 6 -21z"/>
<path d="M4135 5249 c-4 -6 -4 -13 -1 -16 3 -4 6 -1 6 6 0 7 5 9 10 6 6 -3 10
-1 10 4 0 14 -17 14 -25 0z"/>
<path d="M4141 5210 c0 -8 4 -24 9 -35 l9 -20 0 20 c0 11 -4 27 -9 35 -9 13
-10 13 -9 0z"/>
<path d="M2770 5196 c0 -8 4 -17 9 -20 5 -4 7 3 4 14 -6 23 -13 26 -13 6z"/>
<path d="M4330 5139 c0 -11 -4 -17 -10 -14 -5 3 -10 0 -10 -7 -1 -8 -6 -6 -15
6 -13 18 -14 17 -21 -8 -3 -14 -10 -23 -15 -20 -5 3 -9 0 -9 -6 0 -6 -4 -9 -9
-6 -5 3 -11 -4 -14 -17 -2 -12 -8 -31 -12 -41 -6 -15 -5 -17 5 -11 9 6 11 4 5
-5 -6 -10 -11 -9 -22 5 -7 11 -13 24 -13 29 0 6 5 4 11 -4 8 -12 9 -9 4 10 -5
19 -4 22 4 10 6 -8 11 -10 11 -4 0 5 -7 19 -16 30 -8 10 -13 14 -10 7 3 -6 3
-19 -1 -30 -6 -15 -8 -13 -13 12 -3 16 -5 -65 -5 -180 0 -221 -5 -316 -17
-325 -4 -4 -10 -22 -13 -40 -3 -24 -2 -27 3 -12 4 13 12 24 17 25 15 2 36 47
28 61 -3 6 4 1 16 -12 17 -17 26 -20 41 -12 10 5 20 20 23 32 4 23 4 23 15 -2
11 -25 11 -25 11 -2 1 14 5 20 12 17 7 -5 9 7 6 33 -5 58 -39 95 -50 55 -4
-17 -5 -17 -6 0 0 9 -5 17 -11 17 -5 0 -10 10 -10 23 0 16 -3 18 -9 9 -7 -11
-9 -11 -14 1 -3 9 1 18 9 21 8 3 14 19 14 41 0 22 4 34 10 30 6 -4 10 5 10 19
0 22 4 25 28 23 15 -2 33 -7 40 -11 9 -5 12 26 12 133 0 78 -2 141 -5 141 -3
0 -5 -9 -5 -21z m-121 -161 c1 6 5 12 11 12 11 0 6 -157 -5 -168 -4 -4 -6 7
-5 23 1 17 1 48 -1 70 -2 25 -5 8 -9 -45 l-7 -85 0 110 c0 61 4 101 8 90 4
-11 8 -14 8 -7z"/>
<path d="M4162 5130 c0 -14 2 -19 5 -12 2 6 2 18 0 25 -3 6 -5 1 -5 -13z"/>
<path d="M2786 5107 c3 -10 9 -15 12 -12 3 3 0 11 -7 18 -10 9 -11 8 -5 -6z"/>
<path d="M2722 5030 c0 -14 2 -19 5 -12 2 6 2 18 0 25 -3 6 -5 1 -5 -13z"/>
<path d="M2714 4850 c0 -63 1 -89 3 -57 2 31 2 83 0 115 -2 31 -3 5 -3 -58z"/>
<path d="M463 4825 c0 -38 2 -53 4 -32 2 20 2 52 0 70 -2 17 -4 1 -4 -38z"/>
<path d="M472 4685 c0 -16 2 -22 5 -12 2 9 2 23 0 30 -3 6 -5 -1 -5 -18z"/>
<path d="M4333 4645 c0 -22 2 -30 4 -17 2 12 2 30 0 40 -3 9 -5 -1 -4 -23z"/>
<path d="M2021 4634 c0 -11 3 -14 6 -6 3 7 2 16 -1 19 -3 4 -6 -2 -5 -13z"/>
<path d="M2741 4594 c0 -11 3 -14 6 -6 3 7 2 16 -1 19 -3 4 -6 -2 -5 -13z"/>
<path d="M6372 4580 c0 -19 2 -27 5 -17 2 9 2 25 0 35 -3 9 -5 1 -5 -18z"/>
<path d="M2750 4559 c0 -5 5 -7 10 -4 6 3 10 8 10 11 0 2 -4 4 -10 4 -5 0 -10
-5 -10 -11z"/>
<path d="M492 4525 c0 -16 2 -22 5 -12 2 9 2 23 0 30 -3 6 -5 -1 -5 -18z"/>
<path d="M2761 4538 c-1 -4 11 -32 25 -62 27 -57 124 -160 131 -139 3 7 10 10
18 7 7 -3 16 -1 19 4 10 16 -4 41 -20 35 -17 -6 -19 13 -1 20 6 3 0 5 -15 4
-23 -1 -25 -4 -15 -17 17 -22 30 -29 39 -24 4 3 8 0 8 -5 0 -18 -18 -12 -47
15 -15 14 -27 34 -25 43 2 14 1 14 -7 1 -14 -21 -15 4 -1 31 15 27 6 24 -26
-8 -15 -16 -22 -21 -15 -11 10 14 9 17 -8 23 -11 3 -19 14 -18 25 1 14 4 16
14 8 10 -8 12 -7 7 6 -3 9 -12 16 -20 16 -8 0 -14 5 -14 11 0 5 -4 8 -9 5 -5
-4 -12 0 -14 6 -3 7 -6 10 -6 6z m109 -150 c0 -6 -7 -5 -15 2 -8 7 -15 17 -15
22 0 6 7 5 15 -2 8 -7 15 -17 15 -22z"/>
<path d="M7482 4470 c0 -19 2 -27 5 -17 2 9 2 25 0 35 -3 9 -5 1 -5 -18z"/>
<path d="M2840 4475 c-11 -13 -10 -14 4 -9 9 3 16 10 16 15 0 13 -6 11 -20 -6z"/>
<path d="M2086 4397 c3 -10 9 -15 12 -12 3 3 0 11 -7 18 -10 9 -11 8 -5 -6z"/>
<path d="M511 4374 c0 -11 3 -14 6 -6 3 7 2 16 -1 19 -3 4 -6 -2 -5 -13z"/>
<path d="M4141 4377 c-8 -10 -7 -14 2 -14 8 0 14 6 14 14 0 7 -1 13 -2 13 -2
0 -8 -6 -14 -13z"/>
<path d="M5172 4373 c13 -17 -4 -17 -22 0 -12 10 -12 9 -1 -5 17 -23 28 -23
40 0 7 14 6 18 -9 18 -14 0 -16 -3 -8 -13z"/>
<path d="M5479 4370 c-8 -11 -26 -24 -40 -29 -13 -5 -17 -10 -9 -10 18 -1 100
36 100 44 0 3 -5 3 -11 -1 -6 -3 -14 -2 -18 4 -4 7 -12 4 -22 -8z"/>
<path d="M7501 4380 c0 -8 4 -22 9 -30 12 -18 12 -2 0 25 -6 13 -9 15 -9 5z"/>
<path d="M9721 4374 c0 -11 3 -14 6 -6 3 7 2 16 -1 19 -3 4 -6 -2 -5 -13z"/>
<path d="M2097 4357 c-3 -8 1 -14 8 -14 7 0 11 6 8 14 -3 7 -6 13 -8 13 -2 0
-5 -6 -8 -13z"/>
<path d="M524 4346 c-3 -8 -4 -23 -1 -33 3 -12 5 -8 6 10 1 19 5 26 13 21 7
-4 8 -3 4 4 -10 16 -15 15 -22 -2z"/>
<path d="M2944 4316 c11 -9 24 -16 30 -16 12 0 7 5 -24 19 -24 11 -24 11 -6
-3z"/>
<path d="M9711 4314 c0 -11 3 -14 6 -6 3 7 2 16 -1 19 -3 4 -6 -2 -5 -13z"/>
<path d="M2998 4293 c7 -3 16 -2 19 1 4 3 -2 6 -13 5 -11 0 -14 -3 -6 -6z"/>
<path d="M3123 4283 c9 -2 23 -2 30 0 6 3 -1 5 -18 5 -16 0 -22 -2 -12 -5z"/>
<path d="M532 4260 c0 -14 2 -19 5 -12 2 6 2 18 0 25 -3 6 -5 1 -5 -13z"/>
<path d="M9701 4254 c0 -11 3 -14 6 -6 3 7 2 16 -1 19 -3 4 -6 -2 -5 -13z"/>
<path d="M2170 4231 c5 -11 15 -23 21 -27 6 -3 3 5 -6 20 -20 30 -30 35 -15 7z"/>
<path d="M4016 4234 c-5 -13 -4 -14 7 -6 8 7 18 8 22 4 5 -4 5 -1 1 6 -10 17
-23 15 -30 -4z"/>
<path d="M542 4215 c0 -11 3 -29 8 -40 11 -25 11 1 0 35 -6 20 -8 21 -8 5z"/>
<path d="M3990 4195 c-7 -9 -11 -17 -9 -20 3 -2 10 5 17 15 14 24 10 26 -8 5z"/>
<path d="M2186 4178 c3 -5 10 -6 15 -3 13 9 11 12 -6 12 -8 0 -12 -4 -9 -9z"/>
<path d="M2267 4101 c11 -13 7 -41 -9 -52 -4 -3 -1 -14 7 -25 15 -19 15 -19
13 1 -2 37 2 56 12 50 7 -4 7 -12 0 -24 -6 -13 -5 -24 6 -37 15 -18 15 -18 5
1 -5 11 -6 26 -1 36 7 12 2 23 -18 40 -15 13 -22 18 -15 10z"/>
<path d="M3909 4093 c-13 -16 -12 -17 4 -4 16 13 21 21 13 21 -2 0 -10 -8 -17
-17z"/>
<path d="M9661 4074 c0 -11 3 -14 6 -6 3 7 2 16 -1 19 -3 4 -6 -2 -5 -13z"/>
<path d="M5624 3988 l-19 -23 23 19 c12 11 22 21 22 23 0 8 -8 2 -26 -19z"/>
<path d="M3793 3979 c-6 -6 -9 -19 -6 -28 5 -13 3 -14 -7 -4 -10 10 -19 8 -42
-8 -15 -11 -28 -26 -28 -34 0 -7 -7 -16 -16 -19 -22 -9 -26 -8 -18 5 4 8 0 7
-15 -1 -18 -9 -21 -30 -5 -30 3 0 2 5 -1 10 -10 17 12 11 31 -7 17 -17 18 -17
11 0 -4 10 -2 17 6 18 59 4 84 19 70 43 -4 5 1 7 11 3 11 -5 15 -3 10 5 -5 8
-1 9 11 4 18 -6 18 -6 2 12 -13 14 -14 21 -5 30 7 7 10 12 7 12 -3 0 -10 -5
-16 -11z m-31 -46 c-6 -3 -9 -10 -6 -15 4 -7 2 -8 -5 -4 -9 6 -9 11 0 22 6 8
15 12 18 8 3 -4 0 -9 -7 -11z"/>
<path d="M5653 3978 c3 -9 -3 -24 -14 -34 -13 -12 -19 -14 -17 -5 2 7 -5 15
-15 16 -21 4 -77 -41 -77 -61 0 -8 -5 -14 -11 -14 -5 0 -7 5 -3 12 5 7 3 8 -5
4 -9 -6 -8 -13 6 -26 21 -20 34 -17 27 8 -3 9 1 6 9 -7 14 -23 15 -23 25 -5 6
10 12 14 12 7 0 -15 28 -6 52 17 18 17 28 84 13 97 -4 4 -6 1 -2 -9z m-49 -36
c3 -5 -1 -9 -9 -9 -8 0 -12 4 -9 9 3 4 7 8 9 8 2 0 6 -4 9 -8z"/>
<path d="M4508 3959 c6 -9 8 -19 4 -23 -4 -4 0 -6 8 -4 10 2 14 -3 12 -14 -2
-10 2 -19 8 -19 20 -3 25 -4 38 -12 23 -15 12 -1 -35 43 -26 25 -42 38 -35 29z"/>
<path d="M6910 3955 c6 -8 9 -18 7 -22 -3 -5 4 -10 15 -10 20 -2 20 -1 -2 23
-25 26 -40 33 -20 9z"/>
<path d="M616 3900 c10 -55 22 -70 21 -23 -1 22 -5 39 -9 37 -3 -2 -9 2 -12 8
-3 7 -3 -3 0 -22z"/>
<path d="M2484 3897 c1 -25 13 -40 38 -50 11 -4 17 -2 15 6 -1 7 8 11 23 10
l25 -3 -28 16 c-28 15 -52 11 -41 -8 4 -7 2 -8 -5 -4 -9 6 -9 11 -1 21 9 10 7
16 -8 24 -16 9 -19 7 -18 -12z"/>
<path d="M9611 3874 c0 -11 3 -14 6 -6 3 7 2 16 -1 19 -3 4 -6 -2 -5 -13z"/>
<path d="M3714 3869 c-3 -6 -2 -15 3 -20 5 -5 9 -1 9 11 0 23 -2 24 -12 9z"/>
<path d="M3745 3870 c-3 -5 -1 -10 4 -10 6 0 11 5 11 10 0 6 -2 10 -4 10 -3 0
-8 -4 -11 -10z"/>
<path d="M641 3818 c-1 -20 14 -24 25 -6 4 6 3 8 -4 4 -5 -3 -13 0 -15 6 -3 8
-6 6 -6 -4z"/>
<path d="M4678 3803 c19 -7 4 -23 -16 -16 -9 3 -14 3 -11 -1 11 -12 50 -16 43
-4 -5 8 -1 9 12 5 18 -7 18 -7 0 8 -11 8 -25 15 -30 14 -6 0 -5 -3 2 -6z"/>
<path d="M5330 3800 c-8 -5 -10 -10 -5 -10 6 0 17 5 25 10 8 5 11 10 5 10 -5
0 -17 -5 -25 -10z"/>
<path d="M7075 3789 c-4 -6 -5 -12 -2 -15 2 -3 7 2 10 11 7 17 1 20 -8 4z"/>
<path d="M650 3775 c0 -8 2 -15 4 -15 2 0 6 7 10 15 3 8 1 15 -4 15 -6 0 -10
-7 -10 -15z"/>
<path d="M5290 3786 c0 -2 7 -7 16 -10 8 -3 12 -2 9 4 -6 10 -25 14 -25 6z"/>
<path d="M5813 3783 c9 -2 23 -2 30 0 6 3 -1 5 -18 5 -16 0 -22 -2 -12 -5z"/>
<path d="M5963 3783 c20 -2 54 -2 75 0 20 2 3 4 -38 4 -41 0 -58 -2 -37 -4z"/>
<path d="M6258 3783 c7 -3 16 -2 19 1 4 3 -2 6 -13 5 -11 0 -14 -3 -6 -6z"/>
<path d="M6318 3783 c7 -3 16 -2 19 1 4 3 -2 6 -13 5 -11 0 -14 -3 -6 -6z"/>
<path d="M2838 3773 c7 -3 16 -2 19 1 4 3 -2 6 -13 5 -11 0 -14 -3 -6 -6z"/>
<path d="M7778 3773 c6 -2 18 -2 25 0 6 3 1 5 -13 5 -14 0 -19 -2 -12 -5z"/>
<path d="M711 3594 c0 -11 3 -14 6 -6 3 7 2 16 -1 19 -3 4 -6 -2 -5 -13z"/>
<path d="M728 3548 c2 -10 6 -18 7 -18 1 0 5 8 7 18 3 11 0 19 -7 19 -7 0 -10
-8 -7 -19z"/>
<path d="M775 3423 c16 -38 25 -52 25 -39 0 12 -29 76 -35 76 -3 0 2 -17 10
-37z"/>
<path d="M811 3345 c1 -19 18 -51 18 -35 0 8 -4 22 -9 30 -5 8 -9 11 -9 5z"/>
<path d="M840 3321 c0 -6 4 -13 10 -16 6 -3 7 1 4 9 -7 18 -14 21 -14 7z"/>
<path d="M866 3213 c9 -21 18 -46 21 -55 7 -24 19 -23 19 1 0 11 -3 18 -7 15
-4 -2 -12 9 -17 25 -9 26 -8 29 6 24 22 -8 13 1 -16 16 l-23 12 17 -38z"/>
<path d="M916 3095 c4 -8 11 -15 16 -15 6 0 5 6 -2 15 -7 8 -14 15 -16 15 -2
0 -1 -7 2 -15z"/>
<path d="M940 3050 c6 -11 13 -20 16 -20 2 0 0 9 -6 20 -6 11 -13 20 -16 20
-2 0 0 -9 6 -20z"/>
<path d="M966 2997 c3 -10 9 -15 12 -12 3 3 0 11 -7 18 -10 9 -11 8 -5 -6z"/>
<path d="M1012 2915 c58 -109 63 -114 78 -104 13 7 12 9 -2 9 -18 0 -25 15
-10 23 4 2 1 2 -5 1 -7 -2 -24 18 -37 44 -14 26 -32 56 -41 67 -9 11 -1 -7 17
-40z"/>
<path d="M1179 2635 c5 -11 16 -29 24 -39 13 -17 14 -17 20 -2 4 9 3 15 -2 11
-5 -3 -19 7 -31 22 -11 16 -17 19 -11 8z"/>
<path d="M1369 2358 c31 -44 94 -116 76 -88 -5 8 -18 25 -28 37 -11 12 -16 27
-12 34 5 7 4 10 -3 5 -6 -3 -19 7 -28 24 -10 16 -22 30 -27 30 -4 0 6 -19 22
-42z"/>
<path d="M8859 2353 c-13 -16 -12 -17 4 -4 16 13 21 21 13 21 -2 0 -10 -8 -17
-17z"/>
<path d="M1499 2193 c18 -24 35 -43 38 -43 4 0 -1 8 -9 18 -9 9 -13 24 -10 32
2 8 1 12 -3 7 -5 -4 -18 1 -29 10 -11 10 -5 -1 13 -24z"/>
<path d="M8749 2213 c-13 -16 -12 -17 4 -4 16 13 21 21 13 21 -2 0 -10 -8 -17
-17z"/>
<path d="M8699 2153 c-13 -16 -12 -17 4 -4 16 13 21 21 13 21 -2 0 -10 -8 -17
-17z"/>
<path d="M1554 2139 c-3 -6 6 -23 21 -38 24 -23 25 -23 14 -3 -8 12 -18 22
-22 22 -5 0 -7 7 -3 15 6 17 0 20 -10 4z"/>
<path d="M8666 2114 c-5 -14 -4 -15 9 -4 17 14 19 20 6 20 -5 0 -12 -7 -15
-16z"/>
<path d="M1674 1993 c34 -37 56 -47 56 -26 0 4 -3 3 -7 -1 -4 -3 -25 11 -47
31 l-41 38 39 -42z"/>
<path d="M1830 1826 c25 -26 46 -42 48 -36 3 7 9 7 20 -2 14 -10 15 -10 5 1
-6 7 -10 19 -9 25 2 6 1 8 -1 4 -8 -14 -30 -8 -49 13 -10 11 -28 25 -39 31
-11 6 0 -11 25 -36z"/>
<path d="M1910 1756 c0 -2 8 -10 18 -17 15 -13 16 -12 3 4 -13 16 -21 21 -21
13z"/>
<path d="M1956 1722 c-3 -5 11 -24 32 -43 l37 -34 -33 36 c-24 26 -30 38 -20
42 8 4 9 6 1 6 -6 1 -14 -3 -17 -7z"/>
<path d="M8199 1643 c-13 -16 -12 -17 4 -4 16 13 21 21 13 21 -2 0 -10 -8 -17
-17z"/>
<path d="M8049 1513 c-13 -16 -12 -17 4 -4 9 7 17 15 17 17 0 8 -8 3 -21 -13z"/>
<path d="M2210 1496 c0 -2 8 -10 18 -17 15 -13 16 -12 3 4 -13 16 -21 21 -21
13z"/>
<path d="M2250 1466 c0 -2 8 -10 18 -17 15 -13 16 -12 3 4 -13 16 -21 21 -21
13z"/>
<path d="M2312 1415 c15 -17 42 -38 60 -48 l33 -18 -30 25 c-23 20 -26 26 -12
26 9 0 17 4 17 9 0 4 -12 7 -27 5 -15 -1 -37 5 -48 14 -11 9 -8 3 7 -13z"/>
<path d="M2600 1216 c0 -3 9 -10 20 -16 11 -6 20 -8 20 -6 0 3 -9 10 -20 16
-11 6 -20 8 -20 6z"/>
<path d="M2723 1175 c-10 -11 -9 -13 6 -12 11 1 17 7 14 14 -6 16 -5 16 -20
-2z"/>
<path d="M2850 1089 c0 -6 -9 -8 -22 -3 -34 10 -22 2 73 -49 60 -33 86 -42 86
-32 0 8 -4 12 -8 9 -5 -3 -26 4 -48 15 -32 17 -38 25 -34 43 3 13 1 19 -4 13
-14 -17 -43 -18 -37 0 3 8 3 15 0 15 -3 0 -6 -5 -6 -11z"/>
<path d="M2907 1066 c-4 -10 0 -14 13 -13 14 1 16 4 8 14 -13 16 -15 16 -21
-1z"/>
<path d="M7233 995 c0 -7 6 -11 14 -8 7 3 13 6 13 8 0 2 -6 5 -13 8 -8 3 -14
-1 -14 -8z"/>
<path d="M3535 771 c-6 -11 13 -26 22 -17 4 3 1 6 -6 6 -7 0 -9 5 -6 10 3 6 4
10 1 10 -3 0 -7 -4 -11 -9z"/>
<path d="M3581 750 c-9 -5 -5 -9 10 -13 28 -7 31 -6 14 10 -6 6 -18 8 -24 3z"/>
<path d="M6438 673 c7 -3 16 -2 19 1 4 3 -2 6 -13 5 -11 0 -14 -3 -6 -6z"/>
<path d="M6368 653 c7 -3 16 -2 19 1 4 3 -2 6 -13 5 -11 0 -14 -3 -6 -6z"/>
<path d="M4198 573 c7 -3 16 -2 19 1 4 3 -2 6 -13 5 -11 0 -14 -3 -6 -6z"/>
<path d="M4308 553 c6 -2 18 -2 25 0 6 3 1 5 -13 5 -14 0 -19 -2 -12 -5z"/>
<path d="M5918 553 c7 -3 16 -2 19 1 4 3 -2 6 -13 5 -11 0 -14 -3 -6 -6z"/>
<path d="M4358 543 c7 -3 16 -2 19 1 4 3 -2 6 -13 5 -11 0 -14 -3 -6 -6z"/>
<path d="M5843 543 c9 -2 23 -2 30 0 6 3 -1 5 -18 5 -16 0 -22 -2 -12 -5z"/>
<path d="M5783 533 c9 -2 23 -2 30 0 6 3 -1 5 -18 5 -16 0 -22 -2 -12 -5z"/>
<path d="M4518 523 c7 -3 16 -2 19 1 4 3 -2 6 -13 5 -11 0 -14 -3 -6 -6z"/>
<path d="M5590 518 c0 -4 16 -8 35 -8 19 0 35 2 35 4 0 2 -16 6 -35 8 -19 2
-35 0 -35 -4z"/>
<path d="M5703 523 c9 -2 23 -2 30 0 6 3 -1 5 -18 5 -16 0 -22 -2 -12 -5z"/>
<path d="M4583 513 c9 -2 23 -2 30 0 6 3 -1 5 -18 5 -16 0 -22 -2 -12 -5z"/>
<path d="M4650 508 c0 -4 24 -7 53 -7 54 1 49 5 -15 11 -21 2 -38 0 -38 -4z"/>
<path d="M5533 503 c9 -2 23 -2 30 0 6 3 -1 5 -18 5 -16 0 -22 -2 -12 -5z"/>
<path d="M4783 493 c15 -2 39 -2 55 0 15 2 2 4 -28 4 -30 0 -43 -2 -27 -4z"/>
<path d="M5348 493 c7 -3 16 -2 19 1 4 3 -2 6 -13 5 -11 0 -14 -3 -6 -6z"/>
<path d="M5403 493 c9 -2 23 -2 30 0 6 3 -1 5 -18 5 -16 0 -22 -2 -12 -5z"/>
</g>
</svg>
